<svg xmlns="http://www.w3.org/2000/svg" xmlns:xlink="http://www.w3.org/1999/xlink" width="500" zoomAndPan="magnify" viewBox="0 0 375 374.999991" height="500" preserveAspectRatio="xMidYMid meet" version="1.0"><defs><g/></defs><rect x="-37.5" width="450" fill="#ffffff" y="-37.499999" height="449.999989" fill-opacity="1"/><rect x="-37.5" width="450" fill="#ffffff" y="-37.499999" height="449.999989" fill-opacity="1"/><g fill="#000000" fill-opacity="1"><g transform="translate(74.113343, 172.823065)"><g><path d="M 28.390625 -46.4375 C 33.515625 -46.4375 37.550781 -44.882812 40.5 -41.78125 C 43.445312 -38.6875 44.921875 -34.367188 44.921875 -28.828125 L 44.921875 0 L 38.109375 0 L 38.109375 -28.125 C 38.109375 -31.957031 37.0625 -34.992188 34.96875 -37.234375 C 32.882812 -39.472656 30.070312 -40.59375 26.53125 -40.59375 C 23.519531 -40.59375 20.863281 -39.941406 18.5625 -38.640625 C 16.269531 -37.347656 14.457031 -35.550781 13.125 -33.25 C 11.800781 -30.945312 11.140625 -28.265625 11.140625 -25.203125 L 11.140625 0 L 4.421875 0 L 4.421875 -44.65625 L 10.53125 -44.65625 L 11.140625 -38.03125 L 11.234375 -38.03125 C 13.117188 -40.738281 15.472656 -42.816406 18.296875 -44.265625 C 21.128906 -45.710938 24.492188 -46.4375 28.390625 -46.4375 Z M 28.390625 -46.4375 "/></g></g></g><g fill="#000000" fill-opacity="1"><g transform="translate(120.811557, 172.823065)"><g><path d="M 27.328125 1.765625 C 22.609375 1.765625 18.375 0.707031 14.625 -1.40625 C 10.882812 -3.53125 7.953125 -6.445312 5.828125 -10.15625 C 3.710938 -13.875 2.65625 -18.09375 2.65625 -22.8125 C 2.65625 -27.414062 3.625 -31.484375 5.5625 -35.015625 C 7.507812 -38.554688 10.207031 -41.34375 13.65625 -43.375 C 17.113281 -45.414062 21.050781 -46.4375 25.46875 -46.4375 C 29.832031 -46.4375 33.632812 -45.414062 36.875 -43.375 C 40.125 -41.34375 42.660156 -38.539062 44.484375 -34.96875 C 46.304688 -31.40625 47.25 -27.328125 47.3125 -22.734375 C 47.3125 -22.316406 47.3125 -21.882812 47.3125 -21.4375 C 47.3125 -21 47.28125 -20.546875 47.21875 -20.078125 L 9.640625 -20.078125 C 9.992188 -17.015625 10.96875 -14.285156 12.5625 -11.890625 C 14.15625 -9.503906 16.234375 -7.644531 18.796875 -6.3125 C 21.359375 -4.988281 24.234375 -4.328125 27.421875 -4.328125 C 30.898438 -4.328125 34.023438 -5.140625 36.796875 -6.765625 C 39.566406 -8.390625 41.566406 -10.410156 42.796875 -12.828125 L 48.640625 -10.4375 C 47.691406 -8.070312 46.171875 -5.960938 44.078125 -4.109375 C 41.992188 -2.253906 39.519531 -0.8125 36.65625 0.21875 C 33.800781 1.25 30.691406 1.765625 27.328125 1.765625 Z M 9.734375 -26 L 40.15625 -26 C 39.738281 -30.539062 38.1875 -34.046875 35.5 -36.515625 C 32.820312 -38.992188 29.445312 -40.234375 25.375 -40.234375 C 21.25 -40.234375 17.769531 -38.921875 14.9375 -36.296875 C 12.113281 -33.679688 10.378906 -30.25 9.734375 -26 Z M 9.734375 -26 "/></g></g></g><g fill="#000000" fill-opacity="1"><g transform="translate(169.367093, 172.823065)"><g><path d="M 18.578125 0 L 0.96875 -44.65625 L 8.140625 -44.65625 L 23 -5.921875 L 23.078125 -5.921875 L 37.9375 -44.65625 L 45.015625 -44.65625 L 27.328125 0 Z M 18.578125 0 "/></g></g></g><g fill="#000000" fill-opacity="1"><g transform="translate(213.058219, 172.823065)"><g><path d="M 27.328125 1.765625 C 22.609375 1.765625 18.375 0.707031 14.625 -1.40625 C 10.882812 -3.53125 7.953125 -6.445312 5.828125 -10.15625 C 3.710938 -13.875 2.65625 -18.09375 2.65625 -22.8125 C 2.65625 -27.414062 3.625 -31.484375 5.5625 -35.015625 C 7.507812 -38.554688 10.207031 -41.34375 13.65625 -43.375 C 17.113281 -45.414062 21.050781 -46.4375 25.46875 -46.4375 C 29.832031 -46.4375 33.632812 -45.414062 36.875 -43.375 C 40.125 -41.34375 42.660156 -38.539062 44.484375 -34.96875 C 46.304688 -31.40625 47.25 -27.328125 47.3125 -22.734375 C 47.3125 -22.316406 47.3125 -21.882812 47.3125 -21.4375 C 47.3125 -21 47.28125 -20.546875 47.21875 -20.078125 L 9.640625 -20.078125 C 9.992188 -17.015625 10.96875 -14.285156 12.5625 -11.890625 C 14.15625 -9.503906 16.234375 -7.644531 18.796875 -6.3125 C 21.359375 -4.988281 24.234375 -4.328125 27.421875 -4.328125 C 30.898438 -4.328125 34.023438 -5.140625 36.796875 -6.765625 C 39.566406 -8.390625 41.566406 -10.410156 42.796875 -12.828125 L 48.640625 -10.4375 C 47.691406 -8.070312 46.171875 -5.960938 44.078125 -4.109375 C 41.992188 -2.253906 39.519531 -0.8125 36.65625 0.21875 C 33.800781 1.25 30.691406 1.765625 27.328125 1.765625 Z M 9.734375 -26 L 40.15625 -26 C 39.738281 -30.539062 38.1875 -34.046875 35.5 -36.515625 C 32.820312 -38.992188 29.445312 -40.234375 25.375 -40.234375 C 21.25 -40.234375 17.769531 -38.921875 14.9375 -36.296875 C 12.113281 -33.679688 10.378906 -30.25 9.734375 -26 Z M 9.734375 -26 "/></g></g></g><g fill="#000000" fill-opacity="1"><g transform="translate(261.613752, 172.823065)"><g><path d="M 23.796875 -46.515625 C 27.617188 -46.515625 30.753906 -45.304688 33.203125 -42.890625 C 35.648438 -40.472656 37.082031 -37.023438 37.5 -32.546875 L 31.65625 -30.59375 C 31.300781 -33.71875 30.34375 -36.101562 28.78125 -37.75 C 27.21875 -39.40625 25.226562 -40.234375 22.8125 -40.234375 C 19.21875 -40.234375 16.375 -38.847656 14.28125 -36.078125 C 12.1875 -33.304688 11.140625 -29.472656 11.140625 -24.578125 L 11.140625 0 L 4.421875 0 L 4.421875 -44.65625 L 10.171875 -44.65625 L 10.796875 -37.671875 L 10.875 -37.671875 C 12.113281 -40.390625 13.867188 -42.539062 16.140625 -44.125 C 18.410156 -45.71875 20.960938 -46.515625 23.796875 -46.515625 Z M 23.796875 -46.515625 "/></g></g></g><g fill="#000000" fill-opacity="1"><g transform="translate(47.753482, 244.576928)"><g><path d="M 9.8125 0 L 9.734375 -39.09375 L -0.09375 -39.09375 L -0.09375 -44.65625 L 9.734375 -44.65625 L 9.734375 -52.4375 C 9.734375 -56.570312 11.070312 -59.921875 13.75 -62.484375 C 16.4375 -65.046875 19.929688 -66.328125 24.234375 -66.328125 C 28.179688 -66.328125 31.523438 -65.25 34.265625 -63.09375 C 37.003906 -60.945312 38.757812 -58.222656 39.53125 -54.921875 L 33.609375 -52.4375 C 33.140625 -54.738281 32.0625 -56.65625 30.375 -58.1875 C 28.695312 -59.71875 26.738281 -60.484375 24.5 -60.484375 C 22.132812 -60.484375 20.203125 -59.644531 18.703125 -57.96875 C 17.203125 -56.289062 16.453125 -54.066406 16.453125 -51.296875 L 16.453125 -44.65625 L 35.734375 -44.65625 L 35.734375 -39.09375 L 16.453125 -39.09375 L 16.53125 0 Z M 9.8125 0 "/></g></g></g><g fill="#000000" fill-opacity="1"><g transform="translate(85.076649, 244.576928)"><g><path d="M 26.4375 1.765625 C 21.664062 1.765625 17.492188 0.765625 13.921875 -1.234375 C 10.359375 -3.242188 7.585938 -6.046875 5.609375 -9.640625 C 3.640625 -13.234375 2.65625 -17.445312 2.65625 -22.28125 C 2.65625 -27.175781 3.640625 -31.421875 5.609375 -35.015625 C 7.585938 -38.617188 10.359375 -41.421875 13.921875 -43.421875 C 17.492188 -45.429688 21.664062 -46.4375 26.4375 -46.4375 C 31.269531 -46.4375 35.46875 -45.429688 39.03125 -43.421875 C 42.601562 -41.421875 45.378906 -38.617188 47.359375 -35.015625 C 49.335938 -31.421875 50.328125 -27.175781 50.328125 -22.28125 C 50.328125 -17.445312 49.335938 -13.234375 47.359375 -9.640625 C 45.378906 -6.046875 42.601562 -3.242188 39.03125 -1.234375 C 35.46875 0.765625 31.269531 1.765625 26.4375 1.765625 Z M 26.4375 -4.328125 C 31.625 -4.328125 35.765625 -5.960938 38.859375 -9.234375 C 41.960938 -12.515625 43.515625 -16.863281 43.515625 -22.28125 C 43.515625 -27.707031 41.960938 -32.054688 38.859375 -35.328125 C 35.765625 -38.597656 31.625 -40.234375 26.4375 -40.234375 C 21.25 -40.234375 17.109375 -38.597656 14.015625 -35.328125 C 10.921875 -32.054688 9.375 -27.707031 9.375 -22.28125 C 9.375 -16.863281 10.921875 -12.515625 14.015625 -9.234375 C 17.109375 -5.960938 21.25 -4.328125 26.4375 -4.328125 Z M 26.4375 -4.328125 "/></g></g></g><g fill="#000000" fill-opacity="1"><g transform="translate(135.843276, 244.576928)"><g><path d="M 23.796875 -46.515625 C 27.617188 -46.515625 30.753906 -45.304688 33.203125 -42.890625 C 35.648438 -40.472656 37.082031 -37.023438 37.5 -32.546875 L 31.65625 -30.59375 C 31.300781 -33.71875 30.34375 -36.101562 28.78125 -37.75 C 27.21875 -39.40625 25.226562 -40.234375 22.8125 -40.234375 C 19.21875 -40.234375 16.375 -38.847656 14.28125 -36.078125 C 12.1875 -33.304688 11.140625 -29.472656 11.140625 -24.578125 L 11.140625 0 L 4.421875 0 L 4.421875 -44.65625 L 10.171875 -44.65625 L 10.796875 -37.671875 L 10.875 -37.671875 C 12.113281 -40.390625 13.867188 -42.539062 16.140625 -44.125 C 18.410156 -45.71875 20.960938 -46.515625 23.796875 -46.515625 Z M 23.796875 -46.515625 "/></g></g></g><g fill="#000000" fill-opacity="1"><g transform="translate(172.901126, 244.576928)"><g><path d="M 23.796875 20.34375 C 20.316406 20.34375 16.953125 19.835938 13.703125 18.828125 C 10.460938 17.828125 7.585938 16.425781 5.078125 14.625 C 2.578125 12.832031 0.585938 10.757812 -0.890625 8.40625 L 4.328125 3.984375 C 6.097656 7.046875 8.738281 9.519531 12.25 11.40625 C 15.757812 13.289062 19.546875 14.234375 23.609375 14.234375 C 27.328125 14.234375 30.554688 13.492188 33.296875 12.015625 C 36.035156 10.546875 38.171875 8.484375 39.703125 5.828125 C 41.242188 3.179688 42.015625 0.0625 42.015625 -3.53125 L 42.015625 -8.484375 L 41.921875 -8.484375 C 40.148438 -5.710938 37.671875 -3.515625 34.484375 -1.890625 C 31.304688 -0.273438 28.15625 0.53125 25.03125 0.53125 C 20.664062 0.53125 16.800781 -0.441406 13.4375 -2.390625 C 10.082031 -4.335938 7.457031 -7.0625 5.5625 -10.5625 C 3.675781 -14.070312 2.734375 -18.097656 2.734375 -22.640625 C 2.734375 -27.359375 3.675781 -31.484375 5.5625 -35.015625 C 7.457031 -38.554688 10.082031 -41.3125 13.4375 -43.28125 C 16.800781 -45.257812 20.664062 -46.25 25.03125 -46.25 C 28.269531 -46.25 31.453125 -45.421875 34.578125 -43.765625 C 37.703125 -42.117188 40.179688 -40 42.015625 -37.40625 L 42.09375 -37.40625 L 42.796875 -44.65625 L 48.8125 -44.65625 L 48.8125 -3.53125 C 48.8125 1.300781 47.765625 5.5 45.671875 9.0625 C 43.578125 12.632812 40.660156 15.40625 36.921875 17.375 C 33.179688 19.351562 28.804688 20.34375 23.796875 20.34375 Z M 25.90625 -5.578125 C 29.15625 -5.578125 32 -6.328125 34.4375 -7.828125 C 36.882812 -9.328125 38.800781 -11.359375 40.1875 -13.921875 C 41.570312 -16.492188 42.265625 -19.398438 42.265625 -22.640625 C 42.265625 -26.003906 41.570312 -29.007812 40.1875 -31.65625 C 38.800781 -34.3125 36.882812 -36.40625 34.4375 -37.9375 C 32 -39.46875 29.15625 -40.234375 25.90625 -40.234375 C 22.664062 -40.234375 19.804688 -39.492188 17.328125 -38.015625 C 14.859375 -36.546875 12.929688 -34.484375 11.546875 -31.828125 C 10.160156 -29.179688 9.46875 -26.117188 9.46875 -22.640625 C 9.46875 -19.273438 10.160156 -16.3125 11.546875 -13.75 C 12.929688 -11.1875 14.859375 -9.179688 17.328125 -7.734375 C 19.804688 -6.296875 22.664062 -5.578125 25.90625 -5.578125 Z M 25.90625 -5.578125 "/></g></g></g><g fill="#000000" fill-opacity="1"><g transform="translate(223.933084, 244.576928)"><g><path d="M 27.328125 1.765625 C 22.609375 1.765625 18.375 0.707031 14.625 -1.40625 C 10.882812 -3.53125 7.953125 -6.445312 5.828125 -10.15625 C 3.710938 -13.875 2.65625 -18.09375 2.65625 -22.8125 C 2.65625 -27.414062 3.625 -31.484375 5.5625 -35.015625 C 7.507812 -38.554688 10.207031 -41.34375 13.65625 -43.375 C 17.113281 -45.414062 21.050781 -46.4375 25.46875 -46.4375 C 29.832031 -46.4375 33.632812 -45.414062 36.875 -43.375 C 40.125 -41.34375 42.660156 -38.539062 44.484375 -34.96875 C 46.304688 -31.40625 47.25 -27.328125 47.3125 -22.734375 C 47.3125 -22.316406 47.3125 -21.882812 47.3125 -21.4375 C 47.3125 -21 47.28125 -20.546875 47.21875 -20.078125 L 9.640625 -20.078125 C 9.992188 -17.015625 10.96875 -14.285156 12.5625 -11.890625 C 14.15625 -9.503906 16.234375 -7.644531 18.796875 -6.3125 C 21.359375 -4.988281 24.234375 -4.328125 27.421875 -4.328125 C 30.898438 -4.328125 34.023438 -5.140625 36.796875 -6.765625 C 39.566406 -8.390625 41.566406 -10.410156 42.796875 -12.828125 L 48.640625 -10.4375 C 47.691406 -8.070312 46.171875 -5.960938 44.078125 -4.109375 C 41.992188 -2.253906 39.519531 -0.8125 36.65625 0.21875 C 33.800781 1.25 30.691406 1.765625 27.328125 1.765625 Z M 9.734375 -26 L 40.15625 -26 C 39.738281 -30.539062 38.1875 -34.046875 35.5 -36.515625 C 32.820312 -38.992188 29.445312 -40.234375 25.375 -40.234375 C 21.25 -40.234375 17.769531 -38.921875 14.9375 -36.296875 C 12.113281 -33.679688 10.378906 -30.25 9.734375 -26 Z M 9.734375 -26 "/></g></g></g><g fill="#000000" fill-opacity="1"><g transform="translate(272.488617, 244.576928)"><g><path d="M 23.875 1.765625 C 19.6875 1.765625 16.296875 0.484375 13.703125 -2.078125 C 11.109375 -4.640625 9.8125 -7.957031 9.8125 -12.03125 L 9.8125 -39.09375 L 0 -39.09375 L 0 -44.65625 L 9.8125 -44.65625 L 9.8125 -57.921875 L 16.53125 -59.515625 L 16.53125 -44.65625 L 36.53125 -44.65625 L 36.53125 -39.09375 L 16.53125 -39.09375 L 16.53125 -12.734375 C 16.53125 -10.203125 17.253906 -8.125 18.703125 -6.5 C 20.148438 -4.875 22.082031 -4.0625 24.5 -4.0625 C 26.738281 -4.0625 28.785156 -4.84375 30.640625 -6.40625 C 32.492188 -7.96875 33.628906 -10.195312 34.046875 -13.09375 L 39.53125 -10.796875 C 39.113281 -8.191406 38.15625 -5.945312 36.65625 -4.0625 C 35.15625 -2.175781 33.285156 -0.734375 31.046875 0.265625 C 28.804688 1.265625 26.414062 1.765625 23.875 1.765625 Z M 23.875 1.765625 "/></g></g></g><g fill="#28d146" fill-opacity="1"><g transform="translate(310.167244, 244.576928)"><g><path d="M 8.484375 1.0625 C 7.015625 1.0625 5.820312 0.601562 4.90625 -0.3125 C 3.988281 -1.226562 3.53125 -2.421875 3.53125 -3.890625 C 3.53125 -5.304688 3.988281 -6.46875 4.90625 -7.375 C 5.820312 -8.289062 7.015625 -8.75 8.484375 -8.75 C 9.960938 -8.75 11.171875 -8.289062 12.109375 -7.375 C 13.054688 -6.46875 13.53125 -5.304688 13.53125 -3.890625 C 13.53125 -2.421875 13.054688 -1.226562 12.109375 -0.3125 C 11.171875 0.601562 9.960938 1.0625 8.484375 1.0625 Z M 8.484375 1.0625 "/></g></g></g></svg>