<svg xmlns="http://www.w3.org/2000/svg" xmlns:xlink="http://www.w3.org/1999/xlink" width="250" zoomAndPan="magnify" viewBox="0 0 187.5 112.499997" height="150" preserveAspectRatio="xMidYMid meet" version="1.2"><defs><clipPath id="6a3b78b9cc"><path d="M 0.164062 0 L 186.835938 0 L 186.835938 112.003906 L 0.164062 112.003906 Z M 0.164062 0 "/></clipPath></defs><g id="087c5c1d51"><g clip-rule="nonzero" clip-path="url(#6a3b78b9cc)"><path style=" stroke:none;fill-rule:nonzero;fill:#ffffff;fill-opacity:1;" d="M 0.164062 0 L 186.835938 0 L 186.835938 112.003906 L 0.164062 112.003906 Z M 0.164062 0 "/><path style=" stroke:none;fill-rule:nonzero;fill:#000000;fill-opacity:1;" d="M 0.164062 0 L 186.835938 0 L 186.835938 112.003906 L 0.164062 112.003906 Z M 0.164062 0 "/></g><g style="fill:#ffffff;fill-opacity:1;"><g transform="translate(13.258943, 62.659569)"><path style="stroke:none" d="M 8.921875 -14.59375 C 10.535156 -14.59375 11.804688 -14.101562 12.734375 -13.125 C 13.660156 -12.15625 14.125 -10.800781 14.125 -9.0625 L 14.125 0 L 11.984375 0 L 11.984375 -8.84375 C 11.984375 -10.039062 11.648438 -10.992188 10.984375 -11.703125 C 10.328125 -12.410156 9.445312 -12.765625 8.34375 -12.765625 C 7.394531 -12.765625 6.554688 -12.554688 5.828125 -12.140625 C 5.109375 -11.734375 4.539062 -11.171875 4.125 -10.453125 C 3.707031 -9.734375 3.5 -8.890625 3.5 -7.921875 L 3.5 0 L 1.390625 0 L 1.390625 -14.03125 L 3.3125 -14.03125 L 3.5 -11.953125 L 3.53125 -11.953125 C 4.125 -12.804688 4.863281 -13.457031 5.75 -13.90625 C 6.644531 -14.363281 7.703125 -14.59375 8.921875 -14.59375 Z M 8.921875 -14.59375 "/></g></g><g style="fill:#ffffff;fill-opacity:1;"><g transform="translate(27.849782, 62.659569)"><path style="stroke:none" d="M 8.59375 0.5625 C 7.101562 0.5625 5.769531 0.226562 4.59375 -0.4375 C 3.414062 -1.113281 2.492188 -2.035156 1.828125 -3.203125 C 1.160156 -4.367188 0.828125 -5.691406 0.828125 -7.171875 C 0.828125 -8.617188 1.132812 -9.894531 1.75 -11 C 2.363281 -12.113281 3.210938 -12.988281 4.296875 -13.625 C 5.378906 -14.269531 6.613281 -14.59375 8 -14.59375 C 9.375 -14.59375 10.570312 -14.269531 11.59375 -13.625 C 12.613281 -12.988281 13.410156 -12.109375 13.984375 -10.984375 C 14.554688 -9.867188 14.851562 -8.585938 14.875 -7.140625 C 14.875 -7.015625 14.875 -6.878906 14.875 -6.734375 C 14.875 -6.597656 14.863281 -6.457031 14.84375 -6.3125 L 3.03125 -6.3125 C 3.144531 -5.34375 3.453125 -4.484375 3.953125 -3.734375 C 4.453125 -2.984375 5.101562 -2.398438 5.90625 -1.984375 C 6.707031 -1.566406 7.609375 -1.359375 8.609375 -1.359375 C 9.703125 -1.359375 10.6875 -1.613281 11.5625 -2.125 C 12.4375 -2.632812 13.066406 -3.269531 13.453125 -4.03125 L 15.28125 -3.28125 C 14.988281 -2.539062 14.515625 -1.878906 13.859375 -1.296875 C 13.203125 -0.710938 12.421875 -0.257812 11.515625 0.0625 C 10.617188 0.394531 9.644531 0.5625 8.59375 0.5625 Z M 3.0625 -8.171875 L 12.625 -8.171875 C 12.488281 -9.597656 12 -10.695312 11.15625 -11.46875 C 10.3125 -12.25 9.253906 -12.640625 7.984375 -12.640625 C 6.679688 -12.640625 5.582031 -12.226562 4.6875 -11.40625 C 3.800781 -10.582031 3.257812 -9.503906 3.0625 -8.171875 Z M 3.0625 -8.171875 "/></g></g><g style="fill:#ffffff;fill-opacity:1;"><g transform="translate(42.468411, 62.659569)"><path style="stroke:none" d="M 5.84375 0 L 0.3125 -14.03125 L 2.5625 -14.03125 L 7.234375 -1.859375 L 7.25 -1.859375 L 11.921875 -14.03125 L 14.15625 -14.03125 L 8.59375 0 Z M 5.84375 0 "/></g></g><g style="fill:#ffffff;fill-opacity:1;"><g transform="translate(55.558467, 62.659569)"><path style="stroke:none" d="M 8.59375 0.5625 C 7.101562 0.5625 5.769531 0.226562 4.59375 -0.4375 C 3.414062 -1.113281 2.492188 -2.035156 1.828125 -3.203125 C 1.160156 -4.367188 0.828125 -5.691406 0.828125 -7.171875 C 0.828125 -8.617188 1.132812 -9.894531 1.75 -11 C 2.363281 -12.113281 3.210938 -12.988281 4.296875 -13.625 C 5.378906 -14.269531 6.613281 -14.59375 8 -14.59375 C 9.375 -14.59375 10.570312 -14.269531 11.59375 -13.625 C 12.613281 -12.988281 13.410156 -12.109375 13.984375 -10.984375 C 14.554688 -9.867188 14.851562 -8.585938 14.875 -7.140625 C 14.875 -7.015625 14.875 -6.878906 14.875 -6.734375 C 14.875 -6.597656 14.863281 -6.457031 14.84375 -6.3125 L 3.03125 -6.3125 C 3.144531 -5.34375 3.453125 -4.484375 3.953125 -3.734375 C 4.453125 -2.984375 5.101562 -2.398438 5.90625 -1.984375 C 6.707031 -1.566406 7.609375 -1.359375 8.609375 -1.359375 C 9.703125 -1.359375 10.6875 -1.613281 11.5625 -2.125 C 12.4375 -2.632812 13.066406 -3.269531 13.453125 -4.03125 L 15.28125 -3.28125 C 14.988281 -2.539062 14.515625 -1.878906 13.859375 -1.296875 C 13.203125 -0.710938 12.421875 -0.257812 11.515625 0.0625 C 10.617188 0.394531 9.644531 0.5625 8.59375 0.5625 Z M 3.0625 -8.171875 L 12.625 -8.171875 C 12.488281 -9.597656 12 -10.695312 11.15625 -11.46875 C 10.3125 -12.25 9.253906 -12.640625 7.984375 -12.640625 C 6.679688 -12.640625 5.582031 -12.226562 4.6875 -11.40625 C 3.800781 -10.582031 3.257812 -9.503906 3.0625 -8.171875 Z M 3.0625 -8.171875 "/></g></g><g style="fill:#ffffff;fill-opacity:1;"><g transform="translate(70.732943, 62.659569)"><path style="stroke:none" d="M 7.484375 -14.625 C 8.679688 -14.625 9.664062 -14.242188 10.4375 -13.484375 C 11.207031 -12.722656 11.65625 -11.640625 11.78125 -10.234375 L 9.953125 -9.625 C 9.835938 -10.601562 9.535156 -11.347656 9.046875 -11.859375 C 8.554688 -12.378906 7.929688 -12.640625 7.171875 -12.640625 C 6.035156 -12.640625 5.140625 -12.203125 4.484375 -11.328125 C 3.828125 -10.460938 3.5 -9.265625 3.5 -7.734375 L 3.5 0 L 1.390625 0 L 1.390625 -14.03125 L 3.203125 -14.03125 L 3.390625 -11.84375 L 3.421875 -11.84375 C 3.804688 -12.695312 4.351562 -13.375 5.0625 -13.875 C 5.78125 -14.375 6.585938 -14.625 7.484375 -14.625 Z M 7.484375 -14.625 "/></g></g><g style="fill:#ffffff;fill-opacity:1;"><g transform="translate(82.294432, 62.659569)"><path style="stroke:none" d=""/></g></g><g style="fill:#ffffff;fill-opacity:1;"><g transform="translate(89.082209, 62.659569)"><path style="stroke:none" d="M 3.078125 0 L 3.0625 -12.28125 L -0.03125 -12.28125 L -0.03125 -14.03125 L 3.0625 -14.03125 L 3.0625 -16.484375 C 3.0625 -17.773438 3.484375 -18.820312 4.328125 -19.625 C 5.171875 -20.4375 6.265625 -20.84375 7.609375 -20.84375 C 8.859375 -20.84375 9.910156 -20.503906 10.765625 -19.828125 C 11.628906 -19.148438 12.179688 -18.296875 12.421875 -17.265625 L 10.5625 -16.484375 C 10.414062 -17.203125 10.078125 -17.800781 9.546875 -18.28125 C 9.015625 -18.769531 8.398438 -19.015625 7.703125 -19.015625 C 6.960938 -19.015625 6.351562 -18.75 5.875 -18.21875 C 5.40625 -17.6875 5.171875 -16.988281 5.171875 -16.125 L 5.171875 -14.03125 L 11.234375 -14.03125 L 11.234375 -12.28125 L 5.171875 -12.28125 L 5.203125 0 Z M 3.078125 0 "/></g></g><g style="fill:#ffffff;fill-opacity:1;"><g transform="translate(98.892776, 62.659569)"><path style="stroke:none" d="M 8.3125 0.5625 C 6.8125 0.5625 5.5 0.25 4.375 -0.375 C 3.257812 -1.007812 2.390625 -1.890625 1.765625 -3.015625 C 1.140625 -4.148438 0.828125 -5.476562 0.828125 -7 C 0.828125 -8.539062 1.140625 -9.875 1.765625 -11 C 2.390625 -12.132812 3.257812 -13.015625 4.375 -13.640625 C 5.5 -14.273438 6.8125 -14.59375 8.3125 -14.59375 C 9.832031 -14.59375 11.148438 -14.273438 12.265625 -13.640625 C 13.390625 -13.015625 14.257812 -12.132812 14.875 -11 C 15.5 -9.875 15.8125 -8.539062 15.8125 -7 C 15.8125 -5.476562 15.5 -4.148438 14.875 -3.015625 C 14.257812 -1.890625 13.390625 -1.007812 12.265625 -0.375 C 11.148438 0.25 9.832031 0.5625 8.3125 0.5625 Z M 8.3125 -1.359375 C 9.9375 -1.359375 11.234375 -1.875 12.203125 -2.90625 C 13.179688 -3.9375 13.671875 -5.300781 13.671875 -7 C 13.671875 -8.707031 13.179688 -10.070312 12.203125 -11.09375 C 11.234375 -12.125 9.9375 -12.640625 8.3125 -12.640625 C 6.675781 -12.640625 5.375 -12.125 4.40625 -11.09375 C 3.4375 -10.070312 2.953125 -8.707031 2.953125 -7 C 2.953125 -5.300781 3.4375 -3.9375 4.40625 -2.90625 C 5.375 -1.875 6.675781 -1.359375 8.3125 -1.359375 Z M 8.3125 -1.359375 "/></g></g><g style="fill:#ffffff;fill-opacity:1;"><g transform="translate(114.762055, 62.659569)"><path style="stroke:none" d="M 7.484375 -14.625 C 8.679688 -14.625 9.664062 -14.242188 10.4375 -13.484375 C 11.207031 -12.722656 11.65625 -11.640625 11.78125 -10.234375 L 9.953125 -9.625 C 9.835938 -10.601562 9.535156 -11.347656 9.046875 -11.859375 C 8.554688 -12.378906 7.929688 -12.640625 7.171875 -12.640625 C 6.035156 -12.640625 5.140625 -12.203125 4.484375 -11.328125 C 3.828125 -10.460938 3.5 -9.265625 3.5 -7.734375 L 3.5 0 L 1.390625 0 L 1.390625 -14.03125 L 3.203125 -14.03125 L 3.390625 -11.84375 L 3.421875 -11.84375 C 3.804688 -12.695312 4.351562 -13.375 5.0625 -13.875 C 5.78125 -14.375 6.585938 -14.625 7.484375 -14.625 Z M 7.484375 -14.625 "/></g></g><g style="fill:#ffffff;fill-opacity:1;"><g transform="translate(126.04562, 62.659569)"><path style="stroke:none" d="M 7.484375 6.390625 C 6.390625 6.390625 5.332031 6.234375 4.3125 5.921875 C 3.289062 5.609375 2.382812 5.164062 1.59375 4.59375 C 0.8125 4.03125 0.1875 3.378906 -0.28125 2.640625 L 1.359375 1.25 C 1.921875 2.21875 2.75 2.992188 3.84375 3.578125 C 4.945312 4.171875 6.140625 4.46875 7.421875 4.46875 C 8.585938 4.46875 9.601562 4.234375 10.46875 3.765625 C 11.332031 3.304688 12.003906 2.660156 12.484375 1.828125 C 12.960938 0.992188 13.203125 0.015625 13.203125 -1.109375 L 13.203125 -2.671875 L 13.171875 -2.671875 C 12.617188 -1.796875 11.84375 -1.101562 10.84375 -0.59375 C 9.84375 -0.0820312 8.847656 0.171875 7.859375 0.171875 C 6.492188 0.171875 5.28125 -0.132812 4.21875 -0.75 C 3.164062 -1.363281 2.34375 -2.21875 1.75 -3.3125 C 1.15625 -4.414062 0.859375 -5.679688 0.859375 -7.109375 C 0.859375 -8.597656 1.15625 -9.894531 1.75 -11 C 2.34375 -12.113281 3.164062 -12.976562 4.21875 -13.59375 C 5.28125 -14.21875 6.492188 -14.53125 7.859375 -14.53125 C 8.878906 -14.53125 9.878906 -14.269531 10.859375 -13.75 C 11.847656 -13.238281 12.628906 -12.578125 13.203125 -11.765625 L 13.234375 -11.765625 L 13.453125 -14.03125 L 15.34375 -14.03125 L 15.34375 -1.109375 C 15.34375 0.410156 15.015625 1.726562 14.359375 2.84375 C 13.703125 3.96875 12.785156 4.835938 11.609375 5.453125 C 10.429688 6.078125 9.054688 6.390625 7.484375 6.390625 Z M 8.140625 -1.75 C 9.160156 -1.75 10.054688 -1.984375 10.828125 -2.453125 C 11.597656 -2.929688 12.195312 -3.570312 12.625 -4.375 C 13.0625 -5.1875 13.28125 -6.097656 13.28125 -7.109375 C 13.28125 -8.171875 13.0625 -9.117188 12.625 -9.953125 C 12.195312 -10.785156 11.597656 -11.441406 10.828125 -11.921875 C 10.054688 -12.398438 9.160156 -12.640625 8.140625 -12.640625 C 7.117188 -12.640625 6.21875 -12.40625 5.4375 -11.9375 C 4.664062 -11.476562 4.0625 -10.832031 3.625 -10 C 3.1875 -9.164062 2.96875 -8.203125 2.96875 -7.109375 C 2.96875 -6.054688 3.1875 -5.125 3.625 -4.3125 C 4.0625 -3.507812 4.664062 -2.878906 5.4375 -2.421875 C 6.21875 -1.972656 7.117188 -1.75 8.140625 -1.75 Z M 8.140625 -1.75 "/></g></g><g style="fill:#ffffff;fill-opacity:1;"><g transform="translate(141.998272, 62.659569)"><path style="stroke:none" d="M 8.59375 0.5625 C 7.101562 0.5625 5.769531 0.226562 4.59375 -0.4375 C 3.414062 -1.113281 2.492188 -2.035156 1.828125 -3.203125 C 1.160156 -4.367188 0.828125 -5.691406 0.828125 -7.171875 C 0.828125 -8.617188 1.132812 -9.894531 1.75 -11 C 2.363281 -12.113281 3.210938 -12.988281 4.296875 -13.625 C 5.378906 -14.269531 6.613281 -14.59375 8 -14.59375 C 9.375 -14.59375 10.570312 -14.269531 11.59375 -13.625 C 12.613281 -12.988281 13.410156 -12.109375 13.984375 -10.984375 C 14.554688 -9.867188 14.851562 -8.585938 14.875 -7.140625 C 14.875 -7.015625 14.875 -6.878906 14.875 -6.734375 C 14.875 -6.597656 14.863281 -6.457031 14.84375 -6.3125 L 3.03125 -6.3125 C 3.144531 -5.34375 3.453125 -4.484375 3.953125 -3.734375 C 4.453125 -2.984375 5.101562 -2.398438 5.90625 -1.984375 C 6.707031 -1.566406 7.609375 -1.359375 8.609375 -1.359375 C 9.703125 -1.359375 10.6875 -1.613281 11.5625 -2.125 C 12.4375 -2.632812 13.066406 -3.269531 13.453125 -4.03125 L 15.28125 -3.28125 C 14.988281 -2.539062 14.515625 -1.878906 13.859375 -1.296875 C 13.203125 -0.710938 12.421875 -0.257812 11.515625 0.0625 C 10.617188 0.394531 9.644531 0.5625 8.59375 0.5625 Z M 3.0625 -8.171875 L 12.625 -8.171875 C 12.488281 -9.597656 12 -10.695312 11.15625 -11.46875 C 10.3125 -12.25 9.253906 -12.640625 7.984375 -12.640625 C 6.679688 -12.640625 5.582031 -12.226562 4.6875 -11.40625 C 3.800781 -10.582031 3.257812 -9.503906 3.0625 -8.171875 Z M 3.0625 -8.171875 "/></g></g><g style="fill:#ffffff;fill-opacity:1;"><g transform="translate(156.616902, 62.659569)"><path style="stroke:none" d="M 7.5 0.5625 C 6.1875 0.5625 5.117188 0.160156 4.296875 -0.640625 C 3.484375 -1.453125 3.078125 -2.5 3.078125 -3.78125 L 3.078125 -12.28125 L 0 -12.28125 L 0 -14.03125 L 3.078125 -14.03125 L 3.078125 -18.203125 L 5.203125 -18.703125 L 5.203125 -14.03125 L 11.484375 -14.03125 L 11.484375 -12.28125 L 5.203125 -12.28125 L 5.203125 -4 C 5.203125 -3.207031 5.425781 -2.554688 5.875 -2.046875 C 6.332031 -1.535156 6.941406 -1.28125 7.703125 -1.28125 C 8.398438 -1.28125 9.039062 -1.523438 9.625 -2.015625 C 10.207031 -2.503906 10.566406 -3.203125 10.703125 -4.109375 L 12.421875 -3.390625 C 12.296875 -2.578125 11.992188 -1.875 11.515625 -1.28125 C 11.046875 -0.6875 10.457031 -0.234375 9.75 0.078125 C 9.050781 0.398438 8.300781 0.5625 7.5 0.5625 Z M 7.5 0.5625 "/></g></g><g style="fill:#25d366;fill-opacity:1;"><g transform="translate(168.373422, 62.659569)"><path style="stroke:none" d="M 2.671875 0.328125 C 2.203125 0.328125 1.820312 0.1875 1.53125 -0.09375 C 1.25 -0.382812 1.109375 -0.757812 1.109375 -1.21875 C 1.109375 -1.664062 1.25 -2.03125 1.53125 -2.3125 C 1.820312 -2.601562 2.203125 -2.75 2.671875 -2.75 C 3.128906 -2.75 3.503906 -2.601562 3.796875 -2.3125 C 4.097656 -2.03125 4.25 -1.664062 4.25 -1.21875 C 4.25 -0.757812 4.097656 -0.382812 3.796875 -0.09375 C 3.503906 0.1875 3.128906 0.328125 2.671875 0.328125 Z M 2.671875 0.328125 "/></g></g></g></svg>