<svg xmlns="http://www.w3.org/2000/svg" xmlns:xlink="http://www.w3.org/1999/xlink" width="250" zoomAndPan="magnify" viewBox="0 0 187.5 112.499997" height="150" preserveAspectRatio="xMidYMid meet" version="1.0"><defs><g/><clipPath id="0c2f75e61d"><path d="M 0.164062 0 L 186.835938 0 L 186.835938 112.003906 L 0.164062 112.003906 Z M 0.164062 0 " clip-rule="nonzero"/></clipPath></defs><g clip-path="url(#0c2f75e61d)"><path fill="#ffffff" d="M 0.164062 0 L 186.835938 0 L 186.835938 112.003906 L 0.164062 112.003906 Z M 0.164062 0 " fill-opacity="1" fill-rule="nonzero"/><path fill="#000000" d="M 0.164062 0 L 186.835938 0 L 186.835938 112.003906 L 0.164062 112.003906 Z M 0.164062 0 " fill-opacity="1" fill-rule="nonzero"/></g><g fill="#ffffff" fill-opacity="1"><g transform="translate(16.41449, 61.974553)"><g><path d="M 9.671875 -13.59375 C 11.023438 -13.59375 12.085938 -13.195312 12.859375 -12.40625 C 13.640625 -11.613281 14.03125 -10.507812 14.03125 -9.09375 L 14.03125 0 L 10.078125 0 L 10.078125 -7.890625 C 10.078125 -8.640625 9.878906 -9.226562 9.484375 -9.65625 C 9.085938 -10.09375 8.546875 -10.3125 7.859375 -10.3125 C 7.015625 -10.3125 6.320312 -10.035156 5.78125 -9.484375 C 5.238281 -8.929688 4.96875 -8.203125 4.96875 -7.296875 L 4.96875 0 L 1.03125 0 L 1.03125 -13.203125 L 4.359375 -13.203125 L 4.953125 -10.796875 L 4.96875 -10.796875 C 5.457031 -11.691406 6.097656 -12.378906 6.890625 -12.859375 C 7.691406 -13.347656 8.617188 -13.59375 9.671875 -13.59375 Z M 9.671875 -13.59375 "/></g></g></g><g fill="#ffffff" fill-opacity="1"><g transform="translate(30.666162, 61.974553)"><g><path d="M 8.484375 0.515625 C 6.929688 0.515625 5.5625 0.210938 4.375 -0.390625 C 3.195312 -1.003906 2.269531 -1.851562 1.59375 -2.9375 C 0.925781 -4.019531 0.59375 -5.265625 0.59375 -6.671875 C 0.59375 -8.066406 0.890625 -9.289062 1.484375 -10.34375 C 2.078125 -11.40625 2.910156 -12.234375 3.984375 -12.828125 C 5.054688 -13.421875 6.296875 -13.71875 7.703125 -13.71875 C 9.078125 -13.71875 10.273438 -13.429688 11.296875 -12.859375 C 12.328125 -12.296875 13.128906 -11.507812 13.703125 -10.5 C 14.273438 -9.5 14.5625 -8.335938 14.5625 -7.015625 C 14.5625 -6.753906 14.546875 -6.488281 14.515625 -6.21875 C 14.484375 -5.957031 14.441406 -5.722656 14.390625 -5.515625 L 4.640625 -5.515625 C 4.765625 -4.566406 5.191406 -3.804688 5.921875 -3.234375 C 6.648438 -2.660156 7.554688 -2.375 8.640625 -2.375 C 9.460938 -2.375 10.234375 -2.539062 10.953125 -2.875 C 11.679688 -3.207031 12.234375 -3.640625 12.609375 -4.171875 L 14.84375 -2.453125 C 14.3125 -1.578125 13.472656 -0.863281 12.328125 -0.3125 C 11.191406 0.238281 9.910156 0.515625 8.484375 0.515625 Z M 4.609375 -7.78125 L 10.5625 -7.78125 C 10.5 -8.757812 10.207031 -9.523438 9.6875 -10.078125 C 9.175781 -10.628906 8.515625 -10.90625 7.703125 -10.90625 C 6.878906 -10.90625 6.1875 -10.613281 5.625 -10.03125 C 5.070312 -9.457031 4.734375 -8.707031 4.609375 -7.78125 Z M 4.609375 -7.78125 "/></g></g></g><g fill="#ffffff" fill-opacity="1"><g transform="translate(44.505153, 61.974553)"><g><path d="M 5.15625 0 L 0.15625 -13.203125 L 4.203125 -13.203125 L 7.578125 -3.21875 L 7.625 -3.21875 L 11.015625 -13.203125 L 15.0625 -13.203125 L 9.984375 0 Z M 5.15625 0 "/></g></g></g><g fill="#ffffff" fill-opacity="1"><g transform="translate(58.18951, 61.974553)"><g><path d="M 8.484375 0.515625 C 6.929688 0.515625 5.5625 0.210938 4.375 -0.390625 C 3.195312 -1.003906 2.269531 -1.851562 1.59375 -2.9375 C 0.925781 -4.019531 0.59375 -5.265625 0.59375 -6.671875 C 0.59375 -8.066406 0.890625 -9.289062 1.484375 -10.34375 C 2.078125 -11.40625 2.910156 -12.234375 3.984375 -12.828125 C 5.054688 -13.421875 6.296875 -13.71875 7.703125 -13.71875 C 9.078125 -13.71875 10.273438 -13.429688 11.296875 -12.859375 C 12.328125 -12.296875 13.128906 -11.507812 13.703125 -10.5 C 14.273438 -9.5 14.5625 -8.335938 14.5625 -7.015625 C 14.5625 -6.753906 14.546875 -6.488281 14.515625 -6.21875 C 14.484375 -5.957031 14.441406 -5.722656 14.390625 -5.515625 L 4.640625 -5.515625 C 4.765625 -4.566406 5.191406 -3.804688 5.921875 -3.234375 C 6.648438 -2.660156 7.554688 -2.375 8.640625 -2.375 C 9.460938 -2.375 10.234375 -2.539062 10.953125 -2.875 C 11.679688 -3.207031 12.234375 -3.640625 12.609375 -4.171875 L 14.84375 -2.453125 C 14.3125 -1.578125 13.472656 -0.863281 12.328125 -0.3125 C 11.191406 0.238281 9.910156 0.515625 8.484375 0.515625 Z M 4.609375 -7.78125 L 10.5625 -7.78125 C 10.5 -8.757812 10.207031 -9.523438 9.6875 -10.078125 C 9.175781 -10.628906 8.515625 -10.90625 7.703125 -10.90625 C 6.878906 -10.90625 6.1875 -10.613281 5.625 -10.03125 C 5.070312 -9.457031 4.734375 -8.707031 4.609375 -7.78125 Z M 4.609375 -7.78125 "/></g></g></g><g fill="#ffffff" fill-opacity="1"><g transform="translate(72.801991, 61.974553)"><g><path d="M 8.5 -13.609375 C 9.65625 -13.609375 10.601562 -13.207031 11.34375 -12.40625 C 12.082031 -11.613281 12.53125 -10.476562 12.6875 -9 L 9.359375 -8.09375 C 9.285156 -8.90625 9.070312 -9.53125 8.71875 -9.96875 C 8.375 -10.414062 7.914062 -10.640625 7.34375 -10.640625 C 6.601562 -10.640625 6.019531 -10.332031 5.59375 -9.71875 C 5.175781 -9.113281 4.96875 -8.269531 4.96875 -7.1875 L 4.96875 0 L 1.03125 0 L 1.03125 -13.203125 L 4.171875 -13.203125 L 4.765625 -11.0625 L 4.796875 -11.0625 C 5.160156 -11.863281 5.664062 -12.488281 6.3125 -12.9375 C 6.96875 -13.382812 7.695312 -13.609375 8.5 -13.609375 Z M 8.5 -13.609375 "/></g></g></g><g fill="#ffffff" fill-opacity="1"><g transform="translate(85.155843, 61.974553)"><g><path d="M 2.609375 0 L 2.578125 -10.203125 L 0.109375 -10.203125 L 0.109375 -13.203125 L 2.578125 -13.203125 L 2.578125 -14.625 C 2.578125 -16.144531 3.03125 -17.351562 3.9375 -18.25 C 4.851562 -19.144531 6.09375 -19.59375 7.65625 -19.59375 C 8.613281 -19.59375 9.5 -19.382812 10.3125 -18.96875 C 11.125 -18.5625 11.757812 -18.019531 12.21875 -17.34375 L 10.953125 -14.90625 C 10.691406 -15.351562 10.335938 -15.71875 9.890625 -16 C 9.453125 -16.28125 8.984375 -16.421875 8.484375 -16.421875 C 7.898438 -16.421875 7.425781 -16.226562 7.0625 -15.84375 C 6.695312 -15.46875 6.515625 -14.957031 6.515625 -14.3125 L 6.515625 -13.203125 L 11.265625 -13.203125 L 11.265625 -10.203125 L 6.515625 -10.203125 L 6.515625 0 Z M 2.609375 0 "/></g></g></g><g fill="#ffffff" fill-opacity="1"><g transform="translate(95.41231, 61.974553)"><g><path d="M 7.921875 0.515625 C 6.453125 0.515625 5.164062 0.222656 4.0625 -0.359375 C 2.96875 -0.941406 2.113281 -1.769531 1.5 -2.84375 C 0.894531 -3.914062 0.59375 -5.164062 0.59375 -6.59375 C 0.59375 -8.039062 0.894531 -9.296875 1.5 -10.359375 C 2.113281 -11.429688 2.96875 -12.257812 4.0625 -12.84375 C 5.164062 -13.425781 6.453125 -13.71875 7.921875 -13.71875 C 9.390625 -13.71875 10.675781 -13.425781 11.78125 -12.84375 C 12.882812 -12.257812 13.738281 -11.429688 14.34375 -10.359375 C 14.957031 -9.296875 15.265625 -8.039062 15.265625 -6.59375 C 15.265625 -5.164062 14.957031 -3.914062 14.34375 -2.84375 C 13.738281 -1.769531 12.882812 -0.941406 11.78125 -0.359375 C 10.675781 0.222656 9.390625 0.515625 7.921875 0.515625 Z M 7.921875 -2.765625 C 8.984375 -2.765625 9.820312 -3.109375 10.4375 -3.796875 C 11.0625 -4.484375 11.375 -5.414062 11.375 -6.59375 C 11.375 -7.78125 11.0625 -8.71875 10.4375 -9.40625 C 9.820312 -10.09375 8.984375 -10.4375 7.921875 -10.4375 C 6.867188 -10.4375 6.023438 -10.09375 5.390625 -9.40625 C 4.765625 -8.71875 4.453125 -7.78125 4.453125 -6.59375 C 4.453125 -5.414062 4.765625 -4.484375 5.390625 -3.796875 C 6.023438 -3.109375 6.867188 -2.765625 7.921875 -2.765625 Z M 7.921875 -2.765625 "/></g></g></g><g fill="#ffffff" fill-opacity="1"><g transform="translate(110.514469, 61.974553)"><g><path d="M 8.5 -13.609375 C 9.65625 -13.609375 10.601562 -13.207031 11.34375 -12.40625 C 12.082031 -11.613281 12.53125 -10.476562 12.6875 -9 L 9.359375 -8.09375 C 9.285156 -8.90625 9.070312 -9.53125 8.71875 -9.96875 C 8.375 -10.414062 7.914062 -10.640625 7.34375 -10.640625 C 6.601562 -10.640625 6.019531 -10.332031 5.59375 -9.71875 C 5.175781 -9.113281 4.96875 -8.269531 4.96875 -7.1875 L 4.96875 0 L 1.03125 0 L 1.03125 -13.203125 L 4.171875 -13.203125 L 4.765625 -11.0625 L 4.796875 -11.0625 C 5.160156 -11.863281 5.664062 -12.488281 6.3125 -12.9375 C 6.96875 -13.382812 7.695312 -13.609375 8.5 -13.609375 Z M 8.5 -13.609375 "/></g></g></g><g fill="#ffffff" fill-opacity="1"><g transform="translate(122.730086, 61.974553)"><g><path d="M 6.828125 5.921875 C 5.472656 5.921875 4.171875 5.695312 2.921875 5.25 C 1.679688 4.8125 0.695312 4.222656 -0.03125 3.484375 L 1.34375 0.546875 C 1.925781 1.179688 2.679688 1.691406 3.609375 2.078125 C 4.535156 2.460938 5.5 2.65625 6.5 2.65625 C 7.851562 2.65625 8.929688 2.289062 9.734375 1.5625 C 10.546875 0.832031 10.953125 -0.160156 10.953125 -1.421875 L 10.953125 -2.46875 L 10.9375 -2.46875 C 10.488281 -1.726562 9.847656 -1.140625 9.015625 -0.703125 C 8.179688 -0.265625 7.304688 -0.046875 6.390625 -0.046875 C 5.222656 -0.046875 4.203125 -0.328125 3.328125 -0.890625 C 2.460938 -1.453125 1.789062 -2.234375 1.3125 -3.234375 C 0.832031 -4.242188 0.59375 -5.425781 0.59375 -6.78125 C 0.59375 -8.15625 0.828125 -9.347656 1.296875 -10.359375 C 1.773438 -11.378906 2.4375 -12.164062 3.28125 -12.71875 C 4.132812 -13.28125 5.128906 -13.5625 6.265625 -13.5625 C 7.242188 -13.5625 8.160156 -13.296875 9.015625 -12.765625 C 9.878906 -12.242188 10.523438 -11.554688 10.953125 -10.703125 L 10.984375 -10.703125 L 11.578125 -13.203125 L 14.90625 -13.203125 L 14.90625 -1.28125 C 14.90625 0.175781 14.570312 1.445312 13.90625 2.53125 C 13.25 3.613281 12.3125 4.445312 11.09375 5.03125 C 9.882812 5.625 8.460938 5.921875 6.828125 5.921875 Z M 7.8125 -3.25 C 8.8125 -3.25 9.609375 -3.578125 10.203125 -4.234375 C 10.804688 -4.898438 11.109375 -5.75 11.109375 -6.78125 C 11.109375 -7.832031 10.804688 -8.695312 10.203125 -9.375 C 9.609375 -10.050781 8.8125 -10.390625 7.8125 -10.390625 C 6.832031 -10.390625 6.035156 -10.054688 5.421875 -9.390625 C 4.816406 -8.734375 4.515625 -7.863281 4.515625 -6.78125 C 4.515625 -5.726562 4.816406 -4.875 5.421875 -4.21875 C 6.035156 -3.570312 6.832031 -3.25 7.8125 -3.25 Z M 7.8125 -3.25 "/></g></g></g><g fill="#ffffff" fill-opacity="1"><g transform="translate(137.935333, 61.974553)"><g><path d="M 8.484375 0.515625 C 6.929688 0.515625 5.5625 0.210938 4.375 -0.390625 C 3.195312 -1.003906 2.269531 -1.851562 1.59375 -2.9375 C 0.925781 -4.019531 0.59375 -5.265625 0.59375 -6.671875 C 0.59375 -8.066406 0.890625 -9.289062 1.484375 -10.34375 C 2.078125 -11.40625 2.910156 -12.234375 3.984375 -12.828125 C 5.054688 -13.421875 6.296875 -13.71875 7.703125 -13.71875 C 9.078125 -13.71875 10.273438 -13.429688 11.296875 -12.859375 C 12.328125 -12.296875 13.128906 -11.507812 13.703125 -10.5 C 14.273438 -9.5 14.5625 -8.335938 14.5625 -7.015625 C 14.5625 -6.753906 14.546875 -6.488281 14.515625 -6.21875 C 14.484375 -5.957031 14.441406 -5.722656 14.390625 -5.515625 L 4.640625 -5.515625 C 4.765625 -4.566406 5.191406 -3.804688 5.921875 -3.234375 C 6.648438 -2.660156 7.554688 -2.375 8.640625 -2.375 C 9.460938 -2.375 10.234375 -2.539062 10.953125 -2.875 C 11.679688 -3.207031 12.234375 -3.640625 12.609375 -4.171875 L 14.84375 -2.453125 C 14.3125 -1.578125 13.472656 -0.863281 12.328125 -0.3125 C 11.191406 0.238281 9.910156 0.515625 8.484375 0.515625 Z M 4.609375 -7.78125 L 10.5625 -7.78125 C 10.5 -8.757812 10.207031 -9.523438 9.6875 -10.078125 C 9.175781 -10.628906 8.515625 -10.90625 7.703125 -10.90625 C 6.878906 -10.90625 6.1875 -10.613281 5.625 -10.03125 C 5.070312 -9.457031 4.734375 -8.707031 4.609375 -7.78125 Z M 4.609375 -7.78125 "/></g></g></g><g fill="#ffffff" fill-opacity="1"><g transform="translate(152.289979, 61.974553)"><g><path d="M 7.734375 0.515625 C 6.148438 0.515625 4.898438 0.078125 3.984375 -0.796875 C 3.066406 -1.671875 2.609375 -2.859375 2.609375 -4.359375 L 2.609375 -10.203125 L 0.125 -10.203125 L 0.125 -13.203125 L 2.609375 -13.203125 L 2.609375 -16.828125 L 6.546875 -17.6875 L 6.546875 -13.203125 L 11.78125 -13.203125 L 11.78125 -10.203125 L 6.546875 -10.203125 L 6.546875 -4.96875 C 6.546875 -4.25 6.742188 -3.679688 7.140625 -3.265625 C 7.535156 -2.859375 8.023438 -2.65625 8.609375 -2.65625 C 9.773438 -2.65625 10.671875 -3.222656 11.296875 -4.359375 L 12.484375 -1.875 C 12.015625 -1.132812 11.34375 -0.550781 10.46875 -0.125 C 9.601562 0.300781 8.691406 0.515625 7.734375 0.515625 Z M 7.734375 0.515625 "/></g></g></g><g fill="#25d366" fill-opacity="1"><g transform="translate(164.362406, 61.974553)"><g><path d="M 3.09375 0.28125 C 2.425781 0.28125 1.867188 0.0703125 1.421875 -0.34375 C 0.984375 -0.769531 0.765625 -1.316406 0.765625 -1.984375 C 0.765625 -2.640625 0.984375 -3.175781 1.421875 -3.59375 C 1.867188 -4.019531 2.425781 -4.234375 3.09375 -4.234375 C 3.78125 -4.234375 4.34375 -4.019531 4.78125 -3.59375 C 5.21875 -3.175781 5.4375 -2.640625 5.4375 -1.984375 C 5.4375 -1.316406 5.21875 -0.769531 4.78125 -0.34375 C 4.34375 0.0703125 3.78125 0.28125 3.09375 0.28125 Z M 3.09375 0.28125 "/></g></g></g></svg>